<?xml version="1.0" encoding="UTF-8"?>
<svg xmlns="http://www.w3.org/2000/svg" viewBox="0 0 64 64" width="512" height="512"><g id="woman-girl-avatar-user-person"><path d="M61,18c0,1.4-5.19,2.63-13.06,3.34-1.25.12-2.57.22-3.94.3-3.66.23-7.72.36-12,.36s-8.34-.13-12-.36c-1.37-.08-2.69-.18-3.94-.3C8.19,20.63,3,19.4,3,18c0-1.62,6.98-3.02,17.02-3.64a12,12,0,0,1,23.96,0C54.02,14.98,61,16.38,61,18Z" style="fill:#bddbff"/><path d="M49.04,44.43,46,43.63V25.46A3.989,3.989,0,0,1,44,26h-.04a11.4,11.4,0,0,1-.33,1.94A11.966,11.966,0,0,1,36,36.31V41l6.1,1.61L42,43a5,5,0,0,1-10,0,5,5,0,0,1-10,0l-.1-.39L28,41V36.31a11.966,11.966,0,0,1-7.63-8.37A11.4,11.4,0,0,1,20.04,26H20a3.989,3.989,0,0,1-2-.54V43.63l-3.04.8A8,8,0,0,0,9,52.17V61H55V52.17A8,8,0,0,0,49.04,44.43Z" style="fill:#bddbff"/><path d="M47.54,25.53a4.989,4.989,0,0,0,1.44-3.29c1.28-.12,2.52-.26,3.66-.42C60.89,20.68,62,19.25,62,18c0-.86-.01-3.44-17.11-4.58a12.985,12.985,0,0,0-25.78,0C2.01,14.56,2,17.14,2,18c0,1.25,1.11,2.68,9.36,3.82,1.14.16,2.38.3,3.66.42a5.007,5.007,0,0,0,1.46,3.31c.17.16.34.31.52.45V42.86l-2.3.6A9.03,9.03,0,0,0,8,52.17V61a1,1,0,0,0,1,1H55a1,1,0,0,0,1-1V52.17a9.028,9.028,0,0,0-6.71-8.71L47,42.86V25.97A4.513,4.513,0,0,0,47.54,25.53ZM32,4A11.014,11.014,0,0,1,42.97,14.16l-7.85,1.31a19.215,19.215,0,0,1-6.24,0l-7.85-1.31A11.014,11.014,0,0,1,32,4ZM48.78,45.4A7.017,7.017,0,0,1,54,52.17V60H46.46A5.99,5.99,0,0,0,42,50v2a4,4,0,0,1,0,8H22a4,4,0,0,1,0-8V50a5.99,5.99,0,0,0-4.46,10H10V52.17a7.019,7.019,0,0,1,5.21-6.77l5.86-1.54A6,6,0,0,0,27,49a5.89,5.89,0,0,0,2.55-.58l-2.48,6.21,1.86.74L32,47.69l3.07,7.68,1.86-.74-2.48-6.21A5.89,5.89,0,0,0,37,49a6,6,0,0,0,5.93-5.14ZM25,24a1,1,0,0,1,2,0h2a2.985,2.985,0,0,0-.19-1.03c1.05.02,2.11.03,3.19.03s2.14-.01,3.19-.03A2.985,2.985,0,0,0,35,24h2a1,1,0,0,1,2,0h2a2.985,2.985,0,0,0-.25-1.19c.76-.03,1.51-.06,2.25-.11V25a11,11,0,0,1-22,0V22.7c.74.05,1.49.08,2.25.11A2.985,2.985,0,0,0,23,24Zm4,17V37.64a12.68,12.68,0,0,0,6,0V41c0,.25-1.06,1-3,1S29,41.25,29,41Zm1.88,2.93a3.985,3.985,0,0,1-7.85-.59l4.36-1.14A4.958,4.958,0,0,0,30.88,43.93Zm5.73-1.73,4.36,1.14a3.985,3.985,0,0,1-7.85.59A4.958,4.958,0,0,0,36.61,42.2ZM37,40.23V37a13.022,13.022,0,0,0,7.84-10.08c.05-.01.11-.01.16-.02V42.33ZM27,37v3.23l-8,2.1V26.89c.05.01.1.02.16.03A13.042,13.042,0,0,0,27,37ZM19,24.8a3.66,3.66,0,0,1-.51-.21,3.256,3.256,0,0,1-.61-.46,3.052,3.052,0,0,1-.84-1.7c.64.05,1.29.1,1.96.15Zm26,.01V22.58c.67-.05,1.32-.1,1.96-.15a3.075,3.075,0,0,1-.83,1.69A2.951,2.951,0,0,1,45,24.81ZM32,21C16.18,21,5.9,19.29,4.15,18.01c.91-.62,4.73-1.89,14.96-2.59a.979.979,0,0,0,.73.57l8.71,1.45a21.034,21.034,0,0,0,3.45.28,21.034,21.034,0,0,0,3.45-.28l8.71-1.45a.979.979,0,0,0,.73-.57c10.23.7,14.05,1.97,14.96,2.59C58.1,19.29,47.82,21,32,21Z" style="fill:#57a4ff"/><path d="M32,31a1,1,0,0,1-1-1H29a3,3,0,0,0,6,0H33A1,1,0,0,1,32,31Z" style="fill:#57a4ff"/></g></svg>
