<svg height="512" viewBox="0 0 64 64" width="512" xmlns="http://www.w3.org/2000/svg"><g id="woman-girl-avatar-user-people"><path d="m55 52.17v8.83h-46v-8.83a8 8 0 0 1 3-6.25v-9.92a7.945 7.945 0 0 1 4.24-7.05 2.012 2.012 0 0 0 1.76 1.05h2v13.1l6-1.57v8.47l6-4 6 4v-8.47l6 1.57v-13.1h2a2.012 2.012 0 0 0 1.76-1.05 7.945 7.945 0 0 1 4.24 7.05v9.92a8 8 0 0 1 3 6.25z" fill="#bddbff"/><path d="m20 18 17-5 7 5a4.025 4.025 0 0 1 2.83 1.17 1.537 1.537 0 0 1 .17.19v-1.36a15 15 0 0 0 -30 0v1.36a1.537 1.537 0 0 1 .17-.19 4.025 4.025 0 0 1 2.83-1.17z" fill="#bddbff"/><g fill="#57a4ff"><path d="m53 45.48v-9.48a8.922 8.922 0 0 0 -4.05-7.49 2.937 2.937 0 0 0 .05-.51 2.992 2.992 0 0 0 -1.41-2.53 4.946 4.946 0 0 0 .41-6.44v-1.03a16 16 0 0 0 -32 0v1.03a4.932 4.932 0 0 0 .41 6.43 3.022 3.022 0 0 0 -1.41 2.54 2.937 2.937 0 0 0 .05.51 8.922 8.922 0 0 0 -4.05 7.49v9.48a8.915 8.915 0 0 0 -3 6.69v8.83a1 1 0 0 0 1 1h46a1 1 0 0 0 1-1v-8.83a8.915 8.915 0 0 0 -3-6.69zm-5.04-15.23a6.929 6.929 0 0 1 3.04 5.75v14.93a7.013 7.013 0 0 1 -6-6.93v-13h1a2.963 2.963 0 0 0 1.96-.75zm-2.96-1.25v-2h1a1 1 0 0 1 0 2zm2-7a2.994 2.994 0 0 1 -2 2.81v-5.63a3.179 3.179 0 0 1 1.12.69 3.013 3.013 0 0 1 .88 2.13zm-15-18a14 14 0 0 1 13.97 13.41 4.794 4.794 0 0 0 -1.6-.37l-6.79-4.85a.982.982 0 0 0 -.86-.15l-16.94 4.98a4.956 4.956 0 0 0 -1.75.39 14.007 14.007 0 0 1 13.97-13.41zm0 32a11.007 11.007 0 0 1 -11-11v-6.25l15.81-4.65 6.19 4.41v6.49a11.007 11.007 0 0 1 -11 11zm11-4.1v9.9l-6-1.57v-3.23a13.043 13.043 0 0 0 6-5.1zm-16 10.4.63-.17 2.91 3.64-3.54 2.36zm-6-.5v-9.9a13.043 13.043 0 0 0 6 5.1v3.23zm8-1.15v-3.01a12.68 12.68 0 0 0 6 0v3.01l-3 3.75zm7.37 1.48.63.17v5.83l-3.54-2.36zm-18.5-22.25a3.1 3.1 0 0 1 1.13-.7v5.64a3 3 0 0 1 -1.13-4.94zm.13 7.12h1v2h-1a1 1 0 0 1 0-2zm-5 9a6.929 6.929 0 0 1 3.04-5.75 2.963 2.963 0 0 0 1.96.75h1v13a7.013 7.013 0 0 1 -6 6.93zm41 24h-7.54a5.99 5.99 0 0 0 -4.46-10v2a4 4 0 0 1 0 8h-20a4 4 0 0 1 0-8v-2a5.99 5.99 0 0 0 -4.46 10h-7.54v-7.83a6.981 6.981 0 0 1 1-3.61v3.44a1 1 0 0 0 1 1 9.014 9.014 0 0 0 9-9v-.13l4-1.05v7.18a.984.984 0 0 0 .53.88.963.963 0 0 0 1.02-.05l5.45-3.63 5.45 3.63a1 1 0 0 0 1.55-.83v-7.18l4 1.05v.13a9.014 9.014 0 0 0 9 9 1 1 0 0 0 1-1v-3.44a6.981 6.981 0 0 1 1 3.61z"/><path d="m26 21a3 3 0 0 0 -3 3h2a1 1 0 0 1 2 0h2a3 3 0 0 0 -3-3z"/><path d="m35 24h2a1 1 0 0 1 2 0h2a3 3 0 0 0 -6 0z"/><path d="m32 31a1 1 0 0 1 -1-1h-2a3 3 0 0 0 6 0h-2a1 1 0 0 1 -1 1z"/></g></g></svg>