<?xml version="1.0" encoding="UTF-8"?>
<svg xmlns="http://www.w3.org/2000/svg" viewBox="0 0 64 64" width="512" height="512"><g id="woman-girl-avatar-user-female"><path d="M57,28a6.955,6.955,0,0,0-2.51-5.37A7.006,7.006,0,0,0,48,13a5.657,5.657,0,0,0-1.01.08A10,10,0,0,0,35.68,3.51L32,4l-3.68-.49a10,10,0,0,0-11.31,9.57A5.657,5.657,0,0,0,16,13a7.006,7.006,0,0,0-6.49,9.63,6.985,6.985,0,0,0,.35,11A7.007,7.007,0,0,0,16,44l.04.15L28,41V36.31a11.966,11.966,0,0,1-7.63-8.37A11.4,11.4,0,0,1,20.04,26H20a4,4,0,1,1,0-8l12-5,12,5a4,4,0,0,1,0,8h-.04a11.4,11.4,0,0,1-.33,1.94A11.966,11.966,0,0,1,36,36.31V41l11.96,3.15L48,44a7.007,7.007,0,0,0,6.14-10.37A6.922,6.922,0,0,0,57,28Z" style="fill:#bddbff"/><path d="M47,57a7.851,7.851,0,0,1-1.08,4H18.08A7.851,7.851,0,0,1,17,57a8,8,0,0,1,15-3.87A8,8,0,0,1,47,57Z" style="fill:#bddbff"/><path d="M26,21a3,3,0,0,0-3,3h2a1,1,0,0,1,2,0h2A3,3,0,0,0,26,21Z" style="fill:#57a4ff"/><path d="M38,21a3,3,0,0,0-3,3h2a1,1,0,0,1,2,0h2A3,3,0,0,0,38,21Z" style="fill:#57a4ff"/><path d="M56,37a7.9,7.9,0,0,0-.62-3.09,7.983,7.983,0,0,0,.27-11.57A8,8,0,0,0,48,12h-.09A11,11,0,0,0,35.55,2.52L32,2.99l-3.55-.47A11,11,0,0,0,16.09,12H16A8,8,0,0,0,8.35,22.34a7.983,7.983,0,0,0,.27,11.57A7.9,7.9,0,0,0,8,37a8,8,0,0,0,4.69,7.27A9.025,9.025,0,0,0,8,52.17V61a1,1,0,0,0,1,1H55a1,1,0,0,0,1-1V52.17a9.025,9.025,0,0,0-4.69-7.9A8,8,0,0,0,56,37ZM45.31,60H18.69a6.991,6.991,0,0,1,12.43-6.39,1.047,1.047,0,0,0,1.76,0A6.991,6.991,0,0,1,45.31,60ZM54,52.17V60H47.47A8.993,8.993,0,0,0,32,51.34,8.987,8.987,0,0,0,16.53,60H10V52.17a7.019,7.019,0,0,1,5.21-6.77l13.04-3.43A1.014,1.014,0,0,0,29,41V37.64a12.68,12.68,0,0,0,6,0V41a1.014,1.014,0,0,0,.75.97L48.78,45.4A7.017,7.017,0,0,1,54,52.17ZM21,25V18.67l11-4.59,11,4.59V25a11,11,0,0,1-22,0ZM48,43v.12L37,40.23V37a13.017,13.017,0,0,0,7.84-10.09,4.975,4.975,0,0,0-.58-9.88L32.38,12.08a.916.916,0,0,0-.76,0L19.74,17.03a4.977,4.977,0,0,0-.58,9.88A13.017,13.017,0,0,0,27,37v3.23L16,43.12V43a6,6,0,0,1-6-6,5.919,5.919,0,0,1,.74-2.89,1.012,1.012,0,0,0-.29-1.29,5.981,5.981,0,0,1-.3-9.42,1.02,1.02,0,0,0,.29-1.15A5.934,5.934,0,0,1,10,20a6,6,0,0,1,6-6,4.955,4.955,0,0,1,.83.06.993.993,0,0,0,.81-.2,1.028,1.028,0,0,0,.37-.75A9,9,0,0,1,28.19,4.5l3.68.49a1.13,1.13,0,0,0,.26,0l3.68-.49a9,9,0,0,1,10.18,8.61.991.991,0,0,0,1.18.95A4.955,4.955,0,0,1,48,14a6,6,0,0,1,6,6,5.934,5.934,0,0,1-.44,2.25,1.02,1.02,0,0,0,.29,1.15,5.981,5.981,0,0,1-.3,9.42,1.012,1.012,0,0,0-.29,1.29A5.919,5.919,0,0,1,54,37,6,6,0,0,1,48,43ZM45,24.81V19.18a3.179,3.179,0,0,1,1.12.69A3.03,3.03,0,0,1,47,22,2.994,2.994,0,0,1,45,24.81ZM19,19.18v5.64a3,3,0,0,1-1.13-4.94A3.1,3.1,0,0,1,19,19.18Z" style="fill:#57a4ff"/><path d="M32,31a1,1,0,0,1-1-1H29a3,3,0,0,0,6,0H33A1,1,0,0,1,32,31Z" style="fill:#57a4ff"/></g></svg>
